<svg id="Layer_1" data-name="Layer 1" xmlns="http://www.w3.org/2000/svg" viewBox="0 0 468.57 487.05"><defs><style>.cls-1{fill:#222;}.cls-2{fill:#212121;}.cls-3{fill:#0e0e0e;}.cls-4{fill:#282828;}.cls-5{fill:#fafafa;}.cls-6{fill:#42b7e6;}.cls-7{fill:#3fb1a1;}.cls-8{fill:#8d6bc1;}.cls-9{fill:#e9d53a;}.cls-10{fill:#fcfcfc;}.cls-11{fill:#222122;}.cls-12{fill:#2a2a2a;}.cls-13{fill:#080808;}.cls-14{fill:#010101;}.cls-15{fill:#1d1d1d;}.cls-16{fill:#2d2d2d;}.cls-17{fill:#2e2e2e;}.cls-18{fill:#222121;}.cls-19{fill:#fa66cd;}.cls-20{fill:#021001;}.cls-21{fill:#f89f48;}.cls-22{fill:#f54343;}.cls-23{fill:#0f0f0f;}</style></defs><title>icon-512</title><path class="cls-1" d="M520.54,307.67v19.16h-4.9c-.41-.84-.81-1.69-1.21-2.53V314l1.24-3.83c.16-.12.48-.29.46-.34a5.86,5.86,0,0,0-.48-.89q-1.08-6.37-2.17-12.74C511,283.29,509.69,270,506,257.5,488.1,197.6,452.5,151.2,397.74,120.6c-14.95-8.36-31.61-13.67-47.49-20.36-3.93-1.65-6.48-.63-8.62,3.36-3.79,7.06-8.22,13.78-12.64,21.08l5.73,1.8c-2,1.16-4.4,3.68-5.94,3.24-4.62-1.33-6.7,1-8.67,4.22-7.3,12.06-14.79,24-21.76,36.23-2.12,3.74-4.09,5-7.85,3,.81-1.47,1.58-3,2.46-4.4q25.67-42.26,51.38-84.49c2.19-3.58,4-6.77-1.21-9.23a3.86,3.86,0,0,0,0-1.27c-2-.41-4-1.17-6-1.17q-50.25-.1-100.48,0c-2,0-4,.77-6,1.18V75c-3.78,2.25-3.74,4.86-1.42,8.4,4.4,6.72,8.39,13.69,12.56,20.56q20.75,34.14,41.55,68.24c1.17,1.89,2.12,5.88,5.74,2.28-.58,5.45-2.27,6.5-6.49,3.77-1.57-1-3.56-2.37-4-3.95-1.43-5.1-5-8.69-7.8-12.86-5.71-8.42-10.9-17.21-16-26-2.91-5-6.12-7.54-12.27-5.09-5.05,2-10.65,4.42-15.77,4-6-.52-7.2,2.6-8.76,6.56l-1.12.5c-1.25-.44-2.76-1.56-3.69-1.2a59.63,59.63,0,0,0-10,4.91c-3.25,2-6.15,4.63-9.2,7l-.08-.06c-3.09-.32-6.45-1.09-6.37,3.84l0-.06c-5.13.64-10.34,1.15-11.44,7.73l0,0c-3-.49-5.34,0-5.09,3.85l0,0c-3.91-.5-6.3.88-6.35,5.14l0,0c-4.22,2-9,3.24-12.49,6.11s-5.89,7.32-8.49,11.26c-1.06,1.61-1.38,3.71-2,5.58h0c-4.47.62-6.83,3-6.37,7.69l0,0c-5.19.38-6.27,3.89-6.28,8.23l.06.43q-1.39,2-2.77,4.06l.05,0-2.54,3.83,0,.08c-4.74,1.19-5.94,4.44-5.16,8.85l.08.06-.94.25.62.73-.77,1.4L115.9,233l.25.3-1.53,2.25.36.14,0,.38q-9.15,4.75-4.56,10.56a.63.63,0,0,1-.55.76l-1.38,2.94.07.13c-3.77,2.54-6.56,5.39-3.24,10.19a.94.94,0,0,1-.49,1l-2.45,1,1.92,1.52-.33,1.28c-1.25,1.3-3.25,2.42-3.62,3.94C98,278.69,95.92,288,94.11,297.36c-1.19,6.17-3,12.56-2.42,18.66,1.29,14,.49,28.26,5.82,41.87,3.6,9.18,5.18,19.12,8.21,28.55.84,2.59,3.63,4.54,5.52,6.78l.55,1.09a11,11,0,0,0-1.25,2.82c-.72,5.43,3.54,8.67,5.86,12.72,12.32,21.51,26.84,41.19,46.39,56.93,7.68,6.18,14.42,13.55,23.87,17.19a85.64,85.64,0,0,0,8.89,2.42l.37,0,.29.24c-3.29,5.48,1.5,6.32,4.66,8s6.58,4.06,8.57-1.47l2.14.94c.8,1.51,1.25,3.82,2.48,4.35,2.79,1.2,5.95,1.53,9,2.21l2.85,3.61,3.86-3.42,4.8,1.36c1.25,1.65,2.16,4.17,3.79,4.8,5.42,2.07,11.09,3.46,16.66,5.11v2.32c-14-3.81-28.67-6.14-42-11.68-60.86-25.37-101.74-69.91-117.57-133.94-19.4-78.51,2.41-145.89,62.4-200.42a167.24,167.24,0,0,1,50-31.31c11.95-4.84,24.31-8.66,36.63-13a1,1,0,0,0-.07-.69c-3.94-6.55-8.18-12.94-11.78-19.67-2.09-3.9-4.21-4.75-8.51-3.49a225.41,225.41,0,0,0-94.87,55c-39.87,38.59-62.28,85.89-68.63,140.92l-2.44,1.34,0,16.44q0,5.19,0,10.39,0,8.24,0,16.47l1.23,3.91-3.67,0c-.43-4.5-.69-9-1.38-13.5-.3-2-1.46-3.76-2.23-5.64-1.38-40.26,7.5-78.25,25.57-114.13a222.39,222.39,0,0,1,35.94-51.61c28.87-31.05,63.44-53.13,104-65.77,2.29-.71,4.63-1.25,7.41-2-1.15-2.13-1.92-3.59-2.73-5-5.86-10.4-.82-19.6,11.08-19.73,16.17-.19,32.34,0,48.52,0,18.73,0,37.46-.14,56.18.12A33.55,33.55,0,0,1,349.77,70c4.41,1.79,5.91,9.37,3.37,14.74-1.08,2.27-2.49,4.39-4.17,7.33,7,2.22,13.78,4.05,20.3,6.48a227.37,227.37,0,0,1,76.68,47c31.15,29,53.83,63.64,65.71,104.66,3.95,13.63,5.38,28,7.79,42.06.66,3.81.72,7.73,1.06,11.6l-2.14,1.64Z" transform="translate(-51.98 -67.21)"/><path class="cls-2" d="M515.65,326.83h4.9c0,1.28,0,2.55,0,3.83l-1.85,1.27,1.83,1.3c-1.24,11.83-1.2,24-3.92,35.43-19.67,83-69.45,140.33-149,171C328.34,554.73,287.53,557.88,246,550.3l-1.38-1.07c-5.51-.87-11.18-1.19-16.51-2.7Q106.09,512.11,63.73,392.46c-3.56-10.06-5.31-20.76-7.89-31.17l-1-6.31-.38-2.61,1.3-7.65,3.67,0,1.35,0,.26,3.73.59,2.62a5.18,5.18,0,0,1,.49,1.17c9.65,61,39.1,110.36,87.85,148,34.67,26.74,74.43,41.07,117.87,45.46,0,.74,0,1.49,0,2.23l-2.31,2.72,1.62.61c.23-1.11.45-2.22.68-3.33l5.14.07h28l1.28-1.16h2.64l1.23,1.1,2.15,2.36c.56-1.15,1.13-2.29,1.69-3.44,2.74-.93,5.43-2.4,8.24-2.68,14.92-1.49,29.2-5.28,43.28-10.36,30.8-11.11,58.27-27.51,82-50.11,40.16-38.31,62.73-85.41,69.83-140.21l2.37-2.57Z" transform="translate(-51.98 -67.21)"/><path class="cls-3" d="M55.73,344.72l-1.3,7.65-2.31-26.79c.77,1.88,1.93,3.69,2.23,5.64C55,335.69,55.3,340.22,55.73,344.72Z" transform="translate(-51.98 -67.21)"/><path class="cls-3" d="M54.81,355l1,6.31Z" transform="translate(-51.98 -67.21)"/><path class="cls-4" d="M520.54,307.67l-2.17-2.21,2.14-1.64Z" transform="translate(-51.98 -67.21)"/><path class="cls-4" d="M520.51,333.23l-1.83-1.3,1.85-1.27C520.52,331.51,520.52,332.37,520.51,333.23Z" transform="translate(-51.98 -67.21)"/><path class="cls-1" d="M244.65,549.23,246,550.3Z" transform="translate(-51.98 -67.21)"/><path class="cls-5" d="M267.81,545.66c-43.44-4.39-83.2-18.72-117.87-45.46-48.75-37.6-78.2-87-87.85-148a5.18,5.18,0,0,0-.49-1.17L61,348.45l-.26-3.73q-.09-24.27-.17-48.53c6.35-55,28.76-102.33,68.63-140.92a225.41,225.41,0,0,1,94.87-55c4.3-1.26,6.42-.41,8.51,3.49,3.6,6.73,7.84,13.12,11.78,19.67a1,1,0,0,1,.07.69c-12.32,4.33-24.68,8.15-36.63,13a167.24,167.24,0,0,0-50,31.31c-60,54.53-81.8,121.91-62.4,200.42,15.83,64,56.71,108.57,117.57,133.94,13.3,5.54,27.95,7.87,42,11.68l6.4.65,3.82.78,44.71-.17,2.6-.63,5.07-.55c8.44-1.88,17-3.29,25.31-5.71,52.59-15.32,91.77-47.57,118.21-95.26,11.84-21.36,20.23-44,21.4-68.85.64-13.39,3.07-26.89,2-40.14-4.39-56.32-28.43-103-71.95-139.16C393.19,149.26,371.47,137,347,130.15l-11.42-3.33a.6.6,0,0,0-.84-.34l-5.73-1.8c4.42-7.3,8.85-14,12.64-21.08,2.14-4,4.69-5,8.62-3.36,15.88,6.69,32.54,12,47.49,20.36,54.76,30.6,90.36,77,108.22,136.9,3.73,12.54,5.08,25.79,7.53,38.72l1,17.8V324.3l-1.2,16.56v2.58c-7.1,54.8-29.67,101.9-69.83,140.21-23.7,22.6-51.17,39-82,50.11-14.08,5.08-28.36,8.87-43.28,10.36-2.81.28-5.5,1.75-8.24,2.68h-3.86a1.32,1.32,0,0,0-1.21,0h-2.64Z" transform="translate(-51.98 -67.21)"/><path class="cls-6" d="M111.79,394.31l-.55-1.09c-.86-2.4-1.69-4.8-2.56-7.2-13-35.67-16.17-72-7.2-109.1,28.6,6.41,57.17,12.9,85.78,19.22,14.4,3.18,28.86,6.07,43.29,9.08-3.11,18.09,0,34.78,11.22,49.62-1.57,1.43-3.05,3-4.7,4.29q-49.12,39.4-98.26,78.78Z" transform="translate(-51.98 -67.21)"/><path class="cls-7" d="M230.55,305.22c-14.43-3-28.89-5.9-43.29-9.08-28.61-6.32-57.18-12.81-85.78-19.22q1.23-5.71,2.44-11.43l.33-1.28c.18-.84.36-1.67.53-2.51a.92.92,0,0,0,.48-1q1.62-5.1,3.25-10.19l-.07-.13,1.38-2.94a.62.62,0,0,0,.54-.76l4.57-10.56,0-.38-.36-.14,1.53-2.25-.25-.3,1.68-1.92c.25-.47.51-.93.77-1.4a1.34,1.34,0,0,0,.32-1l-.08-.06,5.16-8.85,0-.08c.85-1.28,1.69-2.56,2.54-3.83l-.06,0,2.78-4.06-.06-.43q3.14-4.12,6.28-8.23l0,0q3.18-3.85,6.37-7.69h0l23-23,0,0,6.35-5.14,0,0,5.09-3.85,0,0,11.44-7.73,0,.06,6.37-3.84.08.06,10-4.39q28.8,59.52,57.61,119C245.72,275.09,235.77,288.24,230.55,305.22Z" transform="translate(-51.98 -67.21)"/><path class="cls-8" d="M138.81,437.91q49.13-39.39,98.26-78.78c1.65-1.33,3.13-2.86,4.7-4.3C253.53,369,268.76,376,287,376.75q.07,66.21.14,132.43H267.21l-.45-.37-32.22-6.6-4.8-1.35-4.15-1.43-2.32-.72-11.69-4.61-2.14-.93-13.23-6.55-.29-.24-.38,0c-1.58-1-3.14-2.13-4.76-3.12C170.83,471.16,153,456.66,138.81,437.91Z" transform="translate(-51.98 -67.21)"/><path class="cls-9" d="M261.64,266.76q-28.81-59.52-57.61-119l12.87-6.3,1.12-.5c8.75-2.63,17.51-5.21,26.24-7.89,3.78-1.17,6.12-.19,8.22,3.42,7.49,12.86,15.31,25.52,23.07,38.23,6.49,10.63,16.39,10.67,22.93.05C306.4,161.88,314.29,149,321.94,136c1.86-3.16,3.95-4.18,7.22-3q19.79,7,39.55,14a18.73,18.73,0,0,1-.79,2.4q-23.68,49.38-47.36,98.75c-2.92,6.11-5.47,12.4-8.19,18.6C295.46,259.76,278.55,260.19,261.64,266.76Z" transform="translate(-51.98 -67.21)"/><path class="cls-10" d="M289.15,174.52c-3.62,3.6-4.57-.39-5.74-2.28Q262.53,138.18,241.86,104c-4.17-6.87-8.16-13.84-12.56-20.56-2.32-3.54-2.36-6.15,1.42-8.4l112.41,0c5.21,2.46,3.4,5.65,1.21,9.23Q318.57,126.45,293,168.74c-.88,1.44-1.65,2.93-2.46,4.4h0l-1.36,1.4Z" transform="translate(-51.98 -67.21)"/><path class="cls-11" d="M368.71,147q-19.77-7-39.55-14c-3.27-1.15-5.36-.13-7.22,3-7.65,13-15.54,25.88-23.46,38.74-6.54,10.62-16.44,10.58-22.93-.05C267.79,162,260,149.32,252.48,136.46c-2.1-3.61-4.44-4.59-8.22-3.42-8.73,2.68-17.49,5.26-26.24,7.89,1.56-4,2.73-7.08,8.76-6.56,5.12.44,10.72-2,15.77-4,6.15-2.45,9.36.09,12.27,5.09,5.13,8.79,10.32,17.58,16,26,2.83,4.17,6.37,7.76,7.8,12.86.45,1.58,2.44,2.93,4,3.95,4.22,2.73,5.91,1.68,6.49-3.77v0l1.36-1.4h0c3.76,2,5.73.77,7.85-3,7-12.24,14.46-24.17,21.76-36.23,2-3.24,4.05-5.55,8.67-4.22,1.54.44,3.93-2.08,5.94-3.24a.6.6,0,0,1,.84.34c-.81,5.75,4.54,5,7.41,6.55.56.32,2.63-2.08,4-3.22,24.49,6.86,46.21,19.11,65.62,35.24,43.52,36.18,67.56,82.84,71.95,139.16,1,13.25-1.4,26.75-2,40.14-1.17,24.82-9.56,47.49-21.4,68.85-26.44,47.69-65.62,79.94-118.21,95.26-8.29,2.42-16.87,3.83-25.31,5.71l-7.66-4.79a52.94,52.94,0,0,1,6.93-2.72c7.88-1.9,15.94-3.16,23.72-5.38a176.45,176.45,0,0,0,69.47-37.71c9.41-8.35,17.27-18.45,25.83-27.76a50.25,50.25,0,0,0,4.71-4.87,186.06,186.06,0,0,0,36.33-97.85c1.46-19.06.86-38.2-4.64-56.81a16.19,16.19,0,0,0-.24-2.53Q449.36,187,368.71,147Z" transform="translate(-51.98 -67.21)"/><path class="cls-11" d="M103.92,265.49q-1.22,5.72-2.44,11.43c-9,37.11-5.77,73.43,7.2,109.1.87,2.4,1.7,4.8,2.56,7.2-1.89-2.24-4.68-4.19-5.52-6.78-3-9.43-4.61-19.37-8.21-28.55C92.18,344.28,93,330,91.69,316c-.56-6.1,1.23-12.49,2.42-18.66,1.81-9.36,3.9-18.67,6.19-27.93C100.67,267.91,102.67,266.79,103.92,265.49Z" transform="translate(-51.98 -67.21)"/><path class="cls-11" d="M138.81,437.91c14.16,18.75,32,33.25,52,45.36,1.62,1,3.18,2.08,4.76,3.12a86.15,86.15,0,0,1-8.88-2.42c-9.45-3.64-16.19-11-23.87-17.19-19.55-15.74-34.07-35.42-46.39-56.93-2.32-4.05-6.58-7.29-5.86-12.72a11,11,0,0,1,1.25-2.82Z" transform="translate(-51.98 -67.21)"/><path class="cls-11" d="M234.54,502.2l32.21,6.6c-.52,2.35-1,4.71-1.54,7.06l-3.82-.78c.41-6.48-3.72-3.15-6.4-3-5.57-1.65-11.24-3-16.66-5.11C236.7,506.37,235.79,503.85,234.54,502.2Z" transform="translate(-51.98 -67.21)"/><path class="cls-12" d="M230.71,73.76c2-.41,4-1.18,6-1.18q50.24-.1,100.48,0c2,0,4,.76,6,1.17Z" transform="translate(-51.98 -67.21)"/><path d="M230.71,73.76H343.15a3.86,3.86,0,0,1,0,1.27L230.72,75Z" transform="translate(-51.98 -67.21)"/><path class="cls-11" d="M164.53,172.48l-23,23c.66-1.87,1-4,2-5.58,2.6-3.94,5-8.34,8.49-11.26S160.31,174.45,164.53,172.48Z" transform="translate(-51.98 -67.21)"/><path class="cls-11" d="M196.21,486.61l13.23,6.55c-2,5.52-5.38,3.15-8.57,1.46S192.92,492.09,196.21,486.61Z" transform="translate(-51.98 -67.21)"/><path class="cls-13" d="M60.58,296.19q.09,24.26.17,48.53l-1.35,0c-.41-1.31-.82-2.61-1.22-3.91l0-16.47q0-5.21,0-10.39,0-8.22,0-16.44Z" transform="translate(-51.98 -67.21)"/><path class="cls-11" d="M216.9,141.43,204,147.73l-10,4.39c3-2.35,5.95-4.94,9.2-7a59.63,59.63,0,0,1,10-4.91C214.14,139.87,215.65,141,216.9,141.43Z" transform="translate(-51.98 -67.21)"/><path class="cls-11" d="M211.58,494.09l11.69,4.61c-.06.63-.13,1.27-.2,1.9l0,0c-3-.68-6.18-1-9-2.21C212.83,497.91,212.38,495.6,211.58,494.09Z" transform="translate(-51.98 -67.21)"/><path class="cls-11" d="M114.93,236.11l-4.57,10.56Q105.77,240.88,114.93,236.11Z" transform="translate(-51.98 -67.21)"/><path class="cls-11" d="M187.51,155.84l-11.44,7.73C177.17,157,182.38,156.48,187.51,155.84Z" transform="translate(-51.98 -67.21)"/><path class="cls-14" d="M514.44,314l-1-17.8q1.08,6.36,2.17,12.74a10.1,10.1,0,0,0,0,1.23Z" transform="translate(-51.98 -67.21)"/><path class="cls-14" d="M513.24,340.86l1.2-16.56c.4.84.8,1.69,1.21,2.53l0,14Z" transform="translate(-51.98 -67.21)"/><path class="cls-11" d="M108.51,250.5q-1.62,5.1-3.25,10.19C102,255.89,104.74,253,108.51,250.5Z" transform="translate(-51.98 -67.21)"/><path class="cls-15" d="M255,512.11c2.68-.18,6.81-3.51,6.4,3l-6.4-.65Z" transform="translate(-51.98 -67.21)"/><path class="cls-11" d="M225.59,499.42l4.15,1.43-3.86,3.41L223,500.65l0,0Z" transform="translate(-51.98 -67.21)"/><path class="cls-11" d="M135.2,203.17q-3.13,4.11-6.28,8.23C128.93,207.06,130,203.55,135.2,203.17Z" transform="translate(-51.98 -67.21)"/><path class="cls-11" d="M141.55,195.44q-3.18,3.84-6.37,7.69C134.72,198.43,137.08,196.06,141.55,195.44Z" transform="translate(-51.98 -67.21)"/><path class="cls-11" d="M123.75,219.83l-5.16,8.85C117.81,224.27,119,221,123.75,219.83Z" transform="translate(-51.98 -67.21)"/><path class="cls-16" d="M58.15,324.36l0,16.47Z" transform="translate(-51.98 -67.21)"/><path class="cls-16" d="M58.14,297.53q0,8.22,0,16.44Q58.15,305.75,58.14,297.53Z" transform="translate(-51.98 -67.21)"/><path class="cls-11" d="M170.91,167.36l-6.35,5.14C164.61,168.24,167,166.86,170.91,167.36Z" transform="translate(-51.98 -67.21)"/><path class="cls-11" d="M193.91,152.06l-6.37,3.84C187.46,151,190.82,151.74,193.91,152.06Z" transform="translate(-51.98 -67.21)"/><path class="cls-11" d="M176,163.54l-5.09,3.85C170.69,163.54,173,163.05,176,163.54Z" transform="translate(-51.98 -67.21)"/><path class="cls-11" d="M126.26,215.92c-.85,1.27-1.69,2.55-2.54,3.83Z" transform="translate(-51.98 -67.21)"/><path class="cls-11" d="M129,211.83l-2.78,4.06Z" transform="translate(-51.98 -67.21)"/><path class="cls-11" d="M104.78,261.7c-.17.84-.35,1.67-.53,2.51l-1.92-1.52Z" transform="translate(-51.98 -67.21)"/><path class="cls-11" d="M109.82,247.43l-1.38,2.94Z" transform="translate(-51.98 -67.21)"/><path class="cls-11" d="M116.15,233.34l-1.53,2.25Z" transform="translate(-51.98 -67.21)"/><path class="cls-11" d="M117.58,231.12,115.9,233Z" transform="translate(-51.98 -67.21)"/><path class="cls-4" d="M515.68,310.19a10.1,10.1,0,0,1,0-1.23,5.86,5.86,0,0,1,.48.89S515.84,310.07,515.68,310.19Z" transform="translate(-51.98 -67.21)"/><path class="cls-11" d="M118.67,228.74a1.34,1.34,0,0,1-.32,1l-.62-.73Z" transform="translate(-51.98 -67.21)"/><path class="cls-14" d="M267.81,545.66l34.41,1.13L300.94,548h-28l-5.14-.07h0Z" transform="translate(-51.98 -67.21)"/><path class="cls-17" d="M272.92,548h0Z" transform="translate(-51.98 -67.21)"/><path class="cls-1" d="M306.07,546.79h3.86c-.56,1.15-1.13,2.29-1.69,3.44-.72-.79-1.44-1.57-2.15-2.36A8,8,0,0,0,306.07,546.79Z" transform="translate(-51.98 -67.21)"/><path class="cls-1" d="M267.78,547.89c-.23,1.11-.45,2.22-.68,3.33l-1.62-.61,2.31-2.72Z" transform="translate(-51.98 -67.21)"/><path class="cls-1" d="M513.24,340.86h2.38l-2.37,2.57Z" transform="translate(-51.98 -67.21)"/><path class="cls-13" d="M61,348.45l.59,2.62Z" transform="translate(-51.98 -67.21)"/><path class="cls-14" d="M306.07,546.79a8,8,0,0,1,0,1.09l-1.23-1.1A1.32,1.32,0,0,1,306.07,546.79Z" transform="translate(-51.98 -67.21)"/><path class="cls-15" d="M265.21,515.86c.51-2.35,1-4.71,1.54-7.06l.46.37,4.4,1.7,1.24,0h6.42L278,513.4l-3.83.39.06.8h3.7c4.21-1.18,9.4,2.89,12.83-2.42h2.58l3.88,2.41,5-2.35,2.64-1.35,1.25-.07c.46-.43.92-.86,1.39-1.28l2.45.18,7.66,4.79-5.07.55-1.3-2.47c-.43,1-.87,2.06-1.3,3.1Z" transform="translate(-51.98 -67.21)"/><path class="cls-1" d="M347,130.15c-1.38,1.14-3.45,3.54-4,3.22-2.87-1.59-8.22-.8-7.41-6.55Z" transform="translate(-51.98 -67.21)"/><path class="cls-11" d="M309.92,515.69c.43-1,.87-2.07,1.3-3.1l1.3,2.47Z" transform="translate(-51.98 -67.21)"/><path class="cls-18" d="M261.64,266.76c16.91-6.57,33.82-7,50.73,0q23.49,12.84,30.84,38.57c3.57,18.05-.14,34.51-10.81,49.44-12,13.9-27.18,21.05-45.42,22-18.22-.8-33.45-7.79-45.21-21.92-11.25-14.83-14.33-31.52-11.22-49.61C235.77,288.24,245.72,275.09,261.64,266.76Zm-20.7,71.57c1,1.85,2,3.73,3.09,5.55,9.27,15.51,23.71,23.58,40.94,25.72,6.43.8,13.74-2.1,20.1-4.67,21.05-8.48,32.54-27.12,31.46-49.71C334.92,281.6,297,259,266.58,273.46c-13.44,6.39-22,17-27.52,30.41-3.24,4.29-4.48,8.88-2,14v2.58c-2.4,5.72-1.34,10.81,2.76,15.36v.34Z" transform="translate(-51.98 -67.21)"/><path class="cls-19" d="M287,376.75c18.24-.93,33.46-8.08,45.42-22,22.91,18.22,45.77,36.5,68.75,54.63,11.47,9.05,23.15,17.84,34.73,26.75-8.56,9.31-16.42,19.41-25.83,27.76a176.45,176.45,0,0,1-69.47,37.71c-7.78,2.22-15.84,3.48-23.72,5.38a52.94,52.94,0,0,0-6.93,2.72l-2.45-.18-20.36-.36Q287.06,443,287,376.75Z" transform="translate(-51.98 -67.21)"/><path class="cls-20" d="M287.12,509.18l20.36.36c-.47.42-.93.85-1.39,1.28l-1.25.07-2.64,1.35-5,0-3.87-.09h-2.58l-11.48-1.28h-6.42c-.41,0-.83,0-1.24,0l-4.4-1.7Z" transform="translate(-51.98 -67.21)"/><path class="cls-1" d="M225.59,499.42l-2.52,1.18c.07-.63.14-1.27.2-1.9Z" transform="translate(-51.98 -67.21)"/><path class="cls-21" d="M343.21,305.33q-7.31-25.77-30.84-38.57c2.72-6.2,5.27-12.49,8.19-18.6q23.61-49.41,47.36-98.75a18.73,18.73,0,0,0,.79-2.4Q449.55,186.82,472,274.09a16.19,16.19,0,0,1,.24,2.53,56.34,56.34,0,0,0-5.69.73c-25,5.75-50,11.61-75,17.31C375.52,298.33,359.35,301.78,343.21,305.33Z" transform="translate(-51.98 -67.21)"/><path class="cls-1" d="M290.5,173.14l-1.36,1.4Z" transform="translate(-51.98 -67.21)"/><path class="cls-22" d="M343.21,305.33c16.14-3.55,32.31-7,48.42-10.67,25-5.7,50-11.56,75-17.31a56.34,56.34,0,0,1,5.69-.73c5.5,18.61,6.1,37.75,4.64,56.81a186.06,186.06,0,0,1-36.33,97.85,50.25,50.25,0,0,1-4.71,4.87c-11.58-8.91-23.26-17.7-34.73-26.75-23-18.13-45.84-36.41-68.75-54.63C343.07,339.84,346.78,323.38,343.21,305.33Z" transform="translate(-51.98 -67.21)"/><path class="cls-11" d="M279.27,510.89l11.48,1.28c-3.43,5.31-8.62,1.24-12.83,2.42a9.5,9.5,0,0,0,.07-1.19Z" transform="translate(-51.98 -67.21)"/><path class="cls-12" d="M297.2,512.27l5,0-5,2.35C297.21,513.82,297.2,513.05,297.2,512.27Z" transform="translate(-51.98 -67.21)"/><path class="cls-11" d="M297.2,512.27c0,.78,0,1.55,0,2.32l-3.88-2.41Z" transform="translate(-51.98 -67.21)"/><path class="cls-12" d="M278,513.4a9.5,9.5,0,0,1-.07,1.19h-3.7l-.06-.8Z" transform="translate(-51.98 -67.21)"/><path class="cls-11" d="M271.61,510.87c.41,0,.83,0,1.24,0Z" transform="translate(-51.98 -67.21)"/><path class="cls-11" d="M304.84,510.89l1.25-.07Z" transform="translate(-51.98 -67.21)"/><path class="cls-10" d="M239.06,303.87c5.51-13.46,14.08-24,27.52-30.41C297,259,334.92,281.6,336.53,315.22c1.08,22.59-10.41,41.23-31.46,49.71-6.36,2.57-13.67,5.47-20.1,4.67-17.23-2.14-31.67-10.21-40.94-25.72-1.09-1.82-2.06-3.7-3.09-5.55l-1.14-2.18v-.34L237,320.45v-2.58Q238.05,310.87,239.06,303.87Z" transform="translate(-51.98 -67.21)"/><path class="cls-23" d="M237,320.45l2.76,15.36C235.7,331.26,234.64,326.17,237,320.45Z" transform="translate(-51.98 -67.21)"/><path class="cls-23" d="M239.06,303.87q-1,7-2,14C234.58,312.75,235.82,308.16,239.06,303.87Z" transform="translate(-51.98 -67.21)"/><path class="cls-23" d="M239.8,336.15l1.14,2.18Z" transform="translate(-51.98 -67.21)"/></svg>