<svg id="Layer_1" data-name="Layer 1" xmlns="http://www.w3.org/2000/svg" viewBox="0 0 176.44 183.4"><defs><style>.cls-1{fill:#222;}.cls-2{fill:#212121;}.cls-3{fill:#0e0e0e;}.cls-4{fill:#282828;}.cls-5{fill:#fafafa;}.cls-6{fill:#42b7e6;}.cls-7{fill:#3fb1a1;}.cls-8{fill:#8d6bc1;}.cls-9{fill:#e9d53a;}.cls-10{fill:#fcfcfc;}.cls-11{fill:#222122;}.cls-12{fill:#2a2a2a;}.cls-13{fill:#080808;}.cls-14{fill:#010101;}.cls-15{fill:#1d1d1d;}.cls-16{fill:#2d2d2d;}.cls-17{fill:#2e2e2e;}.cls-18{fill:#222121;}.cls-19{fill:#fa66cd;}.cls-20{fill:#021001;}.cls-21{fill:#f89f48;}.cls-22{fill:#f54343;}.cls-23{fill:#0f0f0f;}</style></defs><title>icon-192</title><path class="cls-1" d="M290.68,186.49v7.22h-1.84c-.15-.32-.3-.64-.46-1v-3.87l.47-1.45c.06,0,.18-.11.17-.13a1.79,1.79,0,0,0-.18-.33c-.27-1.6-.54-3.2-.82-4.8-.92-4.86-1.42-9.86-2.83-14.58-6.72-22.55-20.13-40-40.75-51.55-5.63-3.14-11.9-5.15-17.88-7.66-1.48-.63-2.44-.24-3.25,1.26-1.43,2.66-3.09,5.19-4.76,7.94l2.16.68c-.76.44-1.66,1.38-2.24,1.22-1.74-.5-2.52.37-3.26,1.59-2.75,4.54-5.57,9-8.2,13.64-.8,1.41-1.54,1.87-2.95,1.12.31-.55.59-1.12.92-1.66q9.68-15.92,19.35-31.81c.83-1.35,1.51-2.55-.45-3.48a1.55,1.55,0,0,0,0-.48,12.18,12.18,0,0,0-2.26-.44q-18.91,0-37.83,0a12,12,0,0,0-2.26.44v.49c-1.43.84-1.41,1.83-.54,3.16,1.66,2.53,3.16,5.16,4.73,7.74q7.81,12.86,15.65,25.7c.44.71.8,2.21,2.16.86-.22,2-.85,2.44-2.44,1.42-.59-.39-1.34-.9-1.51-1.49-.54-1.92-1.87-3.27-2.94-4.84-2.15-3.17-4.1-6.48-6-9.79-1.09-1.89-2.3-2.84-4.62-1.92-1.9.75-4,1.66-5.94,1.5-2.27-.2-2.71,1-3.3,2.47l-.42.19c-.47-.17-1-.59-1.38-.45a21.66,21.66,0,0,0-3.78,1.84c-1.22.77-2.31,1.75-3.46,2.63l0,0c-1.17-.12-2.43-.41-2.4,1.45v0c-1.93.24-3.89.43-4.31,2.91h0c-1.14-.18-2,0-1.91,1.45h0c-1.47-.19-2.37.33-2.4,1.94h0c-1.58.74-3.39,1.22-4.7,2.3a18.28,18.28,0,0,0-3.19,4.24,9.76,9.76,0,0,0-.78,2.1h0c-1.68.24-2.57,1.13-2.4,2.9h0c-2,.15-2.36,1.47-2.36,3.1l0,.17-1.05,1.52h0l-1,1.45v0c-1.78.45-2.24,1.67-1.94,3.33l0,0-.35.1.23.27-.29.53-.63.72.1.12-.58.84.13.06v.14c-2.3,1.19-2.88,2.52-1.72,4a.23.23,0,0,1-.21.29l-.52,1.11,0,.05c-1.42.95-2.47,2-1.22,3.83a.36.36,0,0,1-.18.38l-.93.38.73.57-.13.48c-.47.49-1.22.91-1.36,1.49-.86,3.48-1.65,7-2.33,10.51-.45,2.33-1.12,4.73-.91,7,.48,5.27.18,10.64,2.19,15.77,1.35,3.45,2,7.2,3.09,10.75.31,1,1.36,1.71,2.08,2.55.07.14.14.27.2.41a4.14,4.14,0,0,0-.47,1.06c-.27,2,1.34,3.27,2.21,4.79,4.64,8.1,10.11,15.51,17.47,21.44,2.89,2.33,5.43,5.1,9,6.47a34.27,34.27,0,0,0,3.34.91h.14l.11.09c-1.23,2.07.57,2.38,1.76,3s2.48,1.53,3.22-.55l.81.35c.3.57.47,1.44.93,1.64a19.87,19.87,0,0,0,3.38.83l1.08,1.36,1.45-1.29,1.81.52c.47.62.81,1.57,1.42,1.8,2,.78,4.18,1.3,6.28,1.93v.87c-5.28-1.43-10.8-2.31-15.81-4.4-22.91-9.55-38.31-26.32-44.27-50.43-7.3-29.56.91-54.94,23.5-75.47a62.88,62.88,0,0,1,18.81-11.79c4.5-1.82,9.16-3.26,13.79-4.89,0,0,0-.15,0-.26-1.49-2.47-3.08-4.88-4.44-7.41-.79-1.47-1.58-1.79-3.2-1.31a84.8,84.8,0,0,0-35.72,20.72c-15,14.53-23.46,32.34-25.85,53.06l-.92.51V199l.46,1.47h-1.38c-.17-1.7-.27-3.41-.52-5.09a10,10,0,0,0-.85-2.12,87.7,87.7,0,0,1,9.63-43,84,84,0,0,1,13.54-19.43,88.75,88.75,0,0,1,39.15-24.77c.86-.26,1.74-.47,2.78-.75-.43-.8-.72-1.35-1-1.89-2.21-3.92-.31-7.38,4.17-7.43,6.09-.07,12.18,0,18.27,0,7.05,0,14.1-.06,21.15,0a12.79,12.79,0,0,1,4.42,1c1.66.67,2.22,3.53,1.27,5.55-.41.86-.94,1.65-1.57,2.76,2.64.84,5.18,1.53,7.64,2.44a85.6,85.6,0,0,1,28.87,17.68c11.73,10.93,20.27,24,24.75,39.41,1.48,5.13,2,10.54,2.93,15.84.25,1.43.27,2.91.4,4.37l-.81.61Z" transform="translate(-114.24 -95.95)"/><path class="cls-2" d="M288.84,193.71h1.84v1.44l-.7.48.69.49c-.47,4.45-.45,9-1.48,13.34-7.4,31.25-26.15,52.84-56.1,64.37a83.65,83.65,0,0,1-45.78,4l-.52-.41a51.19,51.19,0,0,1-6.21-1q-46-13-61.91-58c-1.34-3.79-2-7.82-3-11.73l-.39-2.38-.14-1,.49-2.88h1.89l.09,1.41.23,1a2.14,2.14,0,0,1,.18.44c3.64,23,14.72,41.55,33.08,55.71,13.06,10.07,28,15.47,44.38,17.12V277l-.87,1,.61.23.25-1.25,1.94,0H208l.48-.43h1l.47.42.81.88.63-1.29a15.24,15.24,0,0,1,3.11-1,67.86,67.86,0,0,0,16.3-3.9,86.69,86.69,0,0,0,30.86-18.87c15.12-14.43,23.62-32.16,26.29-52.79l.9-1Z" transform="translate(-114.24 -95.95)"/><path class="cls-3" d="M115.66,200.45l-.49,2.88q-.44-5.06-.88-10.09a10,10,0,0,1,.85,2.12C115.39,197,115.49,198.75,115.66,200.45Z" transform="translate(-114.24 -95.95)"/><path class="cls-3" d="M115.31,204.31l.39,2.38Z" transform="translate(-114.24 -95.95)"/><path class="cls-4" d="M290.68,186.49l-.82-.83.81-.61Z" transform="translate(-114.24 -95.95)"/><path class="cls-4" d="M290.67,196.12l-.69-.49.7-.48Z" transform="translate(-114.24 -95.95)"/><path class="cls-1" d="M186.79,277.45l.52.41Z" transform="translate(-114.24 -95.95)"/><path class="cls-5" d="M195.51,276.11c-16.35-1.65-31.32-7.05-44.38-17.12-18.36-14.16-29.44-32.75-33.08-55.71a2.14,2.14,0,0,0-.18-.44l-.23-1-.09-1.41q0-9.13-.07-18.27c2.39-20.72,10.83-38.53,25.85-53.06a84.8,84.8,0,0,1,35.72-20.72c1.62-.48,2.41-.16,3.2,1.31,1.36,2.53,2.95,4.94,4.44,7.41.07.11,0,.29,0,.26-4.63,1.63-9.29,3.07-13.79,4.89a62.88,62.88,0,0,0-18.81,11.79c-22.59,20.53-30.8,45.91-23.5,75.47,6,24.11,21.36,40.88,44.27,50.43,5,2.09,10.53,3,15.81,4.4l2.41.24,1.44.3,16.83-.07,1-.23,1.91-.21c3.18-.71,6.41-1.24,9.53-2.15,19.8-5.77,34.55-17.91,44.51-35.87,4.46-8,7.62-16.58,8.06-25.92.24-5.05,1.16-10.13.77-15.12-1.66-21.21-10.71-38.78-27.1-52.4a66.4,66.4,0,0,0-24.7-13.27l-4.3-1.26a.23.23,0,0,0-.32-.12l-2.16-.68c1.67-2.75,3.33-5.28,4.76-7.94.81-1.5,1.77-1.89,3.25-1.26,6,2.51,12.25,4.52,17.88,7.66,20.62,11.52,34,29,40.75,51.55,1.41,4.72,1.91,9.72,2.83,14.58l.36,6.71v3.87l-.45,6.23v1c-2.67,20.63-11.17,38.36-26.29,52.79a86.69,86.69,0,0,1-30.86,18.87,67.86,67.86,0,0,1-16.3,3.9,15.24,15.24,0,0,0-3.11,1h-1.45a.5.5,0,0,0-.46,0h-1Z" transform="translate(-114.24 -95.95)"/><path class="cls-6" d="M136.77,219.12l-.21-.41c-.33-.9-.64-1.81-1-2.71-4.88-13.43-6.09-27.11-2.71-41.09,10.77,2.42,21.53,4.86,32.3,7.24,5.43,1.2,10.87,2.29,16.3,3.42-1.17,6.81,0,13.1,4.23,18.69-.59.54-1.15,1.11-1.77,1.61q-18.49,14.85-37,29.67Z" transform="translate(-114.24 -95.95)"/><path class="cls-7" d="M181.48,185.57c-5.43-1.13-10.87-2.22-16.3-3.42-10.77-2.38-21.53-4.82-32.3-7.24.31-1.43.62-2.86.92-4.3l.13-.48.2-.95a.36.36,0,0,0,.18-.38c.4-1.27.81-2.55,1.22-3.83l0-.05c.18-.37.35-.74.52-1.11a.23.23,0,0,0,.21-.29c.57-1.32,1.14-2.65,1.72-4v-.14l-.13-.06.58-.84-.1-.12.63-.72.29-.53a.49.49,0,0,0,.12-.37l0,0c.64-1.11,1.29-2.22,1.94-3.33v0c.32-.48.64-1,1-1.45h0l1.05-1.52,0-.17,2.36-3.1h0l2.4-2.9h0l8.67-8.64h0l2.4-1.94h0l1.91-1.45h0l4.31-2.91v0l2.4-1.45,0,0,3.78-1.65,21.69,44.82A23.33,23.33,0,0,0,181.48,185.57Z" transform="translate(-114.24 -95.95)"/><path class="cls-8" d="M146.94,235.54q18.5-14.83,37-29.67c.62-.5,1.18-1.07,1.77-1.62a22.47,22.47,0,0,0,17,8.26l.06,49.86h-7.5l-.17-.14L183,259.75l-1.81-.51-1.56-.54-.88-.27-4.4-1.74-.81-.35-5-2.47-.11-.09h-.14c-.6-.39-1.18-.8-1.79-1.17A68.43,68.43,0,0,1,146.94,235.54Z" transform="translate(-114.24 -95.95)"/><path class="cls-9" d="M193.19,171.09,171.5,126.27l4.84-2.37.42-.19c3.3-1,6.6-2,9.89-3a2.32,2.32,0,0,1,3.09,1.28c2.82,4.85,5.77,9.62,8.69,14.4,2.44,4,6.17,4,8.63,0,3-4.84,6-9.69,8.84-14.59.7-1.19,1.49-1.57,2.72-1.14L233.51,126a6.78,6.78,0,0,1-.3.9q-8.91,18.6-17.83,37.19c-1.1,2.3-2.06,4.66-3.09,7A24.76,24.76,0,0,0,193.19,171.09Z" transform="translate(-114.24 -95.95)"/><path class="cls-10" d="M203.55,136.36c-1.36,1.35-1.72-.15-2.16-.86q-7.86-12.82-15.65-25.7c-1.57-2.58-3.07-5.21-4.73-7.74-.87-1.33-.89-2.32.54-3.16h42.33c2,.93,1.28,2.13.45,3.48q-9.71,15.88-19.35,31.81c-.33.54-.61,1.11-.92,1.66h0l-.51.52Z" transform="translate(-114.24 -95.95)"/><path class="cls-11" d="M233.51,126l-14.89-5.29c-1.23-.43-2,0-2.72,1.14-2.88,4.9-5.85,9.75-8.84,14.59-2.46,4-6.19,4-8.63,0-2.92-4.78-5.87-9.55-8.69-14.4a2.32,2.32,0,0,0-3.09-1.28c-3.29,1-6.59,2-9.89,3,.59-1.49,1-2.67,3.3-2.47,1.93.16,4-.75,5.94-1.5,2.32-.92,3.53,0,4.62,1.92,1.94,3.31,3.89,6.62,6,9.79,1.07,1.57,2.4,2.92,2.94,4.84.17.59.92,1.1,1.51,1.49,1.59,1,2.22.63,2.44-1.42h0l.51-.52h0c1.41.75,2.15.29,2.95-1.12,2.63-4.61,5.45-9.1,8.2-13.64.74-1.22,1.52-2.09,3.26-1.59.58.16,1.48-.78,2.24-1.22a.23.23,0,0,1,.32.13c-.31,2.16,1.7,1.86,2.79,2.46.21.12,1-.78,1.51-1.21A66.4,66.4,0,0,1,250,132.92c16.39,13.62,25.44,31.19,27.1,52.4.39,5-.53,10.07-.77,15.12-.44,9.34-3.6,17.88-8.06,25.92-10,18-24.71,30.1-44.51,35.87-3.12.91-6.35,1.44-9.53,2.15l-2.89-1.8a19.92,19.92,0,0,1,2.61-1c3-.71,6-1.19,8.94-2a66.43,66.43,0,0,0,26.16-14.2c3.54-3.15,6.5-7,9.72-10.46a17,17,0,0,0,1.77-1.83,70,70,0,0,0,13.68-36.85c.56-7.17.33-14.38-1.74-21.39a6,6,0,0,0-.09-1C266.72,152,253.8,136,233.51,126Z" transform="translate(-114.24 -95.95)"/><path class="cls-11" d="M133.8,170.61c-.3,1.44-.61,2.87-.92,4.3-3.38,14-2.17,27.66,2.71,41.09.33.9.64,1.81,1,2.71-.72-.84-1.77-1.58-2.08-2.55-1.14-3.55-1.74-7.3-3.09-10.75-2-5.13-1.71-10.5-2.19-15.77-.21-2.3.46-4.7.91-7,.68-3.52,1.47-7,2.33-10.51C132.58,171.52,133.33,171.1,133.8,170.61Z" transform="translate(-114.24 -95.95)"/><path class="cls-11" d="M146.94,235.54a68.43,68.43,0,0,0,19.57,17.08c.61.37,1.19.78,1.79,1.17a34.27,34.27,0,0,1-3.34-.91c-3.56-1.37-6.1-4.14-9-6.47-7.36-5.93-12.83-13.34-17.47-21.44-.87-1.52-2.48-2.75-2.21-4.79a4.14,4.14,0,0,1,.47-1.06Q141.86,227.33,146.94,235.54Z" transform="translate(-114.24 -95.95)"/><path class="cls-11" d="M183,259.75l12.13,2.48c-.2.89-.39,1.77-.58,2.66l-1.44-.3c.15-2.43-1.41-1.18-2.41-1.11-2.1-.63-4.24-1.15-6.28-1.93C183.8,261.32,183.46,260.37,183,259.75Z" transform="translate(-114.24 -95.95)"/><path class="cls-12" d="M181.54,98.41A12,12,0,0,1,183.8,98q18.91,0,37.83,0a12.18,12.18,0,0,1,2.26.44Z" transform="translate(-114.24 -95.95)"/><path d="M181.54,98.41h42.35a1.55,1.55,0,0,1,0,.48H181.55Z" transform="translate(-114.24 -95.95)"/><path class="cls-11" d="M156.62,135.59,148,144.23a9.76,9.76,0,0,1,.78-2.1,18.28,18.28,0,0,1,3.19-4.24C153.23,136.81,155,136.33,156.62,135.59Z" transform="translate(-114.24 -95.95)"/><path class="cls-11" d="M168.55,253.87l5,2.47c-.74,2.08-2,1.19-3.22.55S167.32,255.94,168.55,253.87Z" transform="translate(-114.24 -95.95)"/><path class="cls-13" d="M117.48,182.17q0,9.14.07,18.27H117c-.16-.49-.31-1-.46-1.47,0-2.07,0-4.13,0-6.2v-3.91q0-3.1,0-6.19Z" transform="translate(-114.24 -95.95)"/><path class="cls-11" d="M176.34,123.9l-4.84,2.37-3.78,1.65c1.15-.88,2.24-1.86,3.46-2.63a21.66,21.66,0,0,1,3.78-1.84C175.31,123.31,175.87,123.73,176.34,123.9Z" transform="translate(-114.24 -95.95)"/><path class="cls-11" d="M174.34,256.69l4.4,1.74-.07.71,0,0a19.87,19.87,0,0,1-3.38-.83C174.81,258.13,174.64,257.26,174.34,256.69Z" transform="translate(-114.24 -95.95)"/><path class="cls-11" d="M138,159.55c-.58,1.32-1.15,2.65-1.72,4C135.07,162.07,135.65,160.74,138,159.55Z" transform="translate(-114.24 -95.95)"/><path class="cls-11" d="M165.28,129.32,161,132.23C161.39,129.75,163.35,129.56,165.28,129.32Z" transform="translate(-114.24 -95.95)"/><path class="cls-14" d="M288.38,188.89l-.36-6.71c.28,1.6.55,3.2.82,4.8,0,.15,0,.31,0,.46Z" transform="translate(-114.24 -95.95)"/><path class="cls-14" d="M287.93,199l.45-6.23c.16.31.31.63.46,1,0,1.76,0,3.52,0,5.29Z" transform="translate(-114.24 -95.95)"/><path class="cls-11" d="M135.53,165c-.41,1.28-.82,2.56-1.22,3.83C133.06,167,134.11,165.92,135.53,165Z" transform="translate(-114.24 -95.95)"/><path class="cls-15" d="M190.69,263.48c1-.07,2.56-1.32,2.41,1.11l-2.41-.24Z" transform="translate(-114.24 -95.95)"/><path class="cls-11" d="M179.62,258.7l1.56.54c-.49.42-1,.85-1.45,1.28l-1.08-1.36,0,0Z" transform="translate(-114.24 -95.95)"/><path class="cls-11" d="M145.58,147.14l-2.36,3.1C143.22,148.61,143.63,147.29,145.58,147.14Z" transform="translate(-114.24 -95.95)"/><path class="cls-11" d="M148,144.23l-2.4,2.9C145.4,145.36,146.29,144.47,148,144.23Z" transform="translate(-114.24 -95.95)"/><path class="cls-11" d="M141.27,153.42c-.65,1.11-1.3,2.22-1.94,3.33C139,155.09,139.49,153.87,141.27,153.42Z" transform="translate(-114.24 -95.95)"/><path class="cls-16" d="M116.57,192.78c0,2.07,0,4.13,0,6.2C116.57,196.91,116.57,194.85,116.57,192.78Z" transform="translate(-114.24 -95.95)"/><path class="cls-16" d="M116.56,182.68q0,3.09,0,6.19Q116.57,185.77,116.56,182.68Z" transform="translate(-114.24 -95.95)"/><path class="cls-11" d="M159,133.66l-2.4,1.94C156.66,134,157.56,133.47,159,133.66Z" transform="translate(-114.24 -95.95)"/><path class="cls-11" d="M167.69,127.9l-2.4,1.45C165.26,127.49,166.52,127.78,167.69,127.9Z" transform="translate(-114.24 -95.95)"/><path class="cls-11" d="M161,132.22,159,133.67C158.94,132.22,159.81,132,161,132.22Z" transform="translate(-114.24 -95.95)"/><path class="cls-11" d="M142.21,151.94c-.31.49-.63,1-1,1.45C141.58,152.91,141.9,152.43,142.21,151.94Z" transform="translate(-114.24 -95.95)"/><path class="cls-11" d="M143.24,150.41l-1.05,1.52Z" transform="translate(-114.24 -95.95)"/><path class="cls-11" d="M134.13,169.18l-.2.95-.73-.57Z" transform="translate(-114.24 -95.95)"/><path class="cls-11" d="M136,163.81c-.17.37-.34.74-.52,1.11C135.68,164.55,135.85,164.18,136,163.81Z" transform="translate(-114.24 -95.95)"/><path class="cls-11" d="M138.41,158.51l-.58.84Z" transform="translate(-114.24 -95.95)"/><path class="cls-11" d="M138.94,157.67l-.63.72Z" transform="translate(-114.24 -95.95)"/><path class="cls-4" d="M288.85,187.44c0-.15,0-.31,0-.46a1.79,1.79,0,0,1,.18.33S288.91,187.4,288.85,187.44Z" transform="translate(-114.24 -95.95)"/><path class="cls-11" d="M139.35,156.77a.49.49,0,0,1-.12.37l-.23-.27Z" transform="translate(-114.24 -95.95)"/><path class="cls-14" d="M195.51,276.11l13,.43L208,277H197.44l-1.94,0h0Z" transform="translate(-114.24 -95.95)"/><path class="cls-17" d="M197.44,277h0Z" transform="translate(-114.24 -95.95)"/><path class="cls-1" d="M209.92,276.54h1.45l-.63,1.29-.81-.88A2.77,2.77,0,0,0,209.92,276.54Z" transform="translate(-114.24 -95.95)"/><path class="cls-1" d="M195.5,277l-.25,1.25-.61-.23.87-1Z" transform="translate(-114.24 -95.95)"/><path class="cls-1" d="M287.93,199h.9l-.9,1Z" transform="translate(-114.24 -95.95)"/><path class="cls-13" d="M117.64,201.85l.23,1Z" transform="translate(-114.24 -95.95)"/><path class="cls-14" d="M209.92,276.54a2.77,2.77,0,0,1,0,.41l-.47-.42A.5.5,0,0,1,209.92,276.54Z" transform="translate(-114.24 -95.95)"/><path class="cls-15" d="M194.54,264.89c.19-.89.38-1.77.58-2.66l.17.14L197,263h2.88l-.48.94-1.44.15,0,.3h1.39c1.59-.44,3.54,1.09,4.83-.91h1c.48.31,1,.61,1.46.91l1.87-.88,1-.51.47,0,.52-.48.92.07,2.89,1.8-1.91.21-.49-.93-.49,1.16Z" transform="translate(-114.24 -95.95)"/><path class="cls-1" d="M225.33,119.65c-.52.43-1.3,1.33-1.51,1.21-1.09-.6-3.1-.3-2.79-2.46Z" transform="translate(-114.24 -95.95)"/><path class="cls-11" d="M211.37,264.82l.49-1.16.49.93Z" transform="translate(-114.24 -95.95)"/><path class="cls-18" d="M193.19,171.09a24.76,24.76,0,0,1,19.1,0,21.87,21.87,0,0,1,7.55,33.14,23.23,23.23,0,0,1-17.11,8.28,22.47,22.47,0,0,1-17-8.26c-4.24-5.58-5.4-11.87-4.23-18.68A23.33,23.33,0,0,1,193.19,171.09ZM185.4,198c.38.7.75,1.41,1.16,2.09,3.49,5.84,8.93,8.88,15.41,9.68,2.43.3,5.18-.79,7.58-1.75,7.92-3.2,12.25-10.22,11.84-18.72-.6-12.66-14.9-21.17-26.34-15.73a20.64,20.64,0,0,0-10.36,11.45,4.79,4.79,0,0,0-.77,5.28v1a5.1,5.1,0,0,0,1,5.78v.13Z" transform="translate(-114.24 -95.95)"/><path class="cls-19" d="M202.73,212.51a23.23,23.23,0,0,0,17.11-8.28q12.93,10.29,25.88,20.57c4.32,3.41,8.72,6.72,13.08,10.07-3.22,3.51-6.18,7.31-9.72,10.46a66.43,66.43,0,0,1-26.16,14.2c-2.94.83-6,1.31-8.94,2a19.92,19.92,0,0,0-2.61,1l-.92-.07-7.66-.14Z" transform="translate(-114.24 -95.95)"/><path class="cls-20" d="M202.79,262.37l7.66.14-.52.48-.47,0-1,.51h-1.88l-1.45,0h-1l-4.32-.48H197l-1.66-.64Z" transform="translate(-114.24 -95.95)"/><path class="cls-1" d="M179.62,258.7l-1,.44c0-.23.05-.47.07-.71Z" transform="translate(-114.24 -95.95)"/><path class="cls-21" d="M223.91,185.61a23.14,23.14,0,0,0-11.62-14.52c1-2.34,2-4.7,3.09-7q8.88-18.61,17.83-37.19a6.78,6.78,0,0,0,.3-.9c20.29,10,33.21,26,38.91,47.85a6,6,0,0,1,.09,1,21.19,21.19,0,0,0-2.14.28c-9.42,2.16-18.82,4.37-28.23,6.52C236.07,183,230,184.28,223.91,185.61Z" transform="translate(-114.24 -95.95)"/><path class="cls-1" d="M204.06,135.84l-.51.52Z" transform="translate(-114.24 -95.95)"/><path class="cls-22" d="M223.91,185.61c6.07-1.33,12.16-2.63,18.23-4,9.41-2.15,18.81-4.36,28.23-6.52a21.19,21.19,0,0,1,2.14-.28c2.07,7,2.3,14.22,1.74,21.39A70,70,0,0,1,260.57,233a17,17,0,0,1-1.77,1.83c-4.36-3.35-8.76-6.66-13.08-10.07q-13-10.25-25.88-20.57A23.13,23.13,0,0,0,223.91,185.61Z" transform="translate(-114.24 -95.95)"/><path class="cls-11" d="M199.83,263l4.32.48c-1.29,2-3.24.47-4.83.91a3.4,3.4,0,0,0,0-.45Z" transform="translate(-114.24 -95.95)"/><path class="cls-12" d="M206.58,263.54h1.88l-1.87.88C206.58,264.12,206.58,263.83,206.58,263.54Z" transform="translate(-114.24 -95.95)"/><path class="cls-11" d="M206.58,263.54c0,.29,0,.58,0,.87-.49-.3-1-.6-1.46-.91Z" transform="translate(-114.24 -95.95)"/><path class="cls-12" d="M199.35,264a3.4,3.4,0,0,1,0,.45h-1.39l0-.3Z" transform="translate(-114.24 -95.95)"/><path class="cls-11" d="M197,263h0Z" transform="translate(-114.24 -95.95)"/><path class="cls-11" d="M209.46,263l.47,0Z" transform="translate(-114.24 -95.95)"/><path class="cls-10" d="M184.69,185.06a20.64,20.64,0,0,1,10.36-11.45c11.44-5.44,25.74,3.07,26.34,15.73.41,8.5-3.92,15.52-11.84,18.72-2.4,1-5.15,2.05-7.58,1.75-6.48-.8-11.92-3.84-15.41-9.68-.41-.68-.78-1.39-1.16-2.09l-.43-.82v-.13l-1-5.78v-1Z" transform="translate(-114.24 -95.95)"/><path class="cls-23" d="M183.93,191.31l1,5.78A5.1,5.1,0,0,1,183.93,191.31Z" transform="translate(-114.24 -95.95)"/><path class="cls-23" d="M184.69,185.06l-.77,5.28A4.79,4.79,0,0,1,184.69,185.06Z" transform="translate(-114.24 -95.95)"/><path class="cls-23" d="M185,197.22l.43.82Z" transform="translate(-114.24 -95.95)"/></svg>