<svg id="Layer_1" data-name="Layer 1" xmlns="http://www.w3.org/2000/svg" viewBox="0 0 349.6 67.31"><defs><style>.cls-1{fill:#222;}.cls-2{fill:#212121;}.cls-3{fill:#0e0e0e;}.cls-4{fill:#282828;}.cls-5{fill:#fafafa;}.cls-6{fill:#42b7e6;}.cls-7{fill:#3fb1a1;}.cls-8{fill:#8d6bc1;}.cls-9{fill:#e9d53a;}.cls-10{fill:#fcfcfc;}.cls-11{fill:#222122;}.cls-12{fill:#2a2a2a;}.cls-13{fill:#080808;}.cls-14{fill:#010101;}.cls-15{fill:#1d1d1d;}.cls-16{fill:#2d2d2d;}.cls-17{fill:#2e2e2e;}.cls-18{fill:#222121;}.cls-19{fill:#fa66cd;}.cls-20{fill:#021001;}.cls-21{fill:#f89f48;}.cls-22{fill:#f54343;}.cls-23{fill:#0f0f0f;}.cls-24{fill:#cf0;}</style></defs><title>logosvg</title><path class="cls-1" d="M180.36,260.46v2.65h-.68l-.16-.35v-1.42l.17-.53.06-.05a.75.75,0,0,0-.07-.12l-.3-1.76a50.05,50.05,0,0,0-1-5.35,31,31,0,0,0-15-18.92,64.93,64.93,0,0,0-6.57-2.82c-.54-.23-.89-.08-1.19.47-.52,1-1.13,1.9-1.74,2.91l.79.25c-.28.16-.61.51-.82.45-.64-.19-.93.13-1.2.58-1,1.67-2,3.32-3,5-.29.51-.56.69-1.08.41.11-.2.21-.41.34-.61q3.54-5.83,7.1-11.68c.3-.49.55-.93-.17-1.27a.54.54,0,0,0,0-.18A4.75,4.75,0,0,0,155,228H141.13a4.86,4.86,0,0,0-.83.16v.18c-.52.31-.51.67-.19,1.16.61.93,1.16,1.89,1.73,2.84,1.92,3.15,3.82,6.3,5.75,9.43.16.27.29.82.79.32-.08.75-.31.9-.9.52-.21-.14-.49-.33-.55-.55a6.28,6.28,0,0,0-1.08-1.77c-.79-1.17-1.51-2.38-2.21-3.6-.41-.69-.85-1-1.7-.7a5.13,5.13,0,0,1-2.18.55c-.83-.07-1,.36-1.21.91l-.16.07c-.17-.06-.38-.22-.51-.17a8.84,8.84,0,0,0-1.38.68c-.45.28-.85.64-1.27,1h0c-.43-.05-.89-.16-.88.53h0c-.71.09-1.43.16-1.58,1.07h0c-.42-.07-.74,0-.71.53h0c-.54-.07-.87.12-.88.71h0a7.93,7.93,0,0,0-1.73.84,6.78,6.78,0,0,0-1.17,1.56,3.72,3.72,0,0,0-.29.77h0a.88.88,0,0,0-.88,1.06h0c-.71,0-.86.54-.86,1.14v.06l-.38.56h0l-.35.53h0a.92.92,0,0,0-.71,1.22h0l-.13,0,.08.1-.1.19-.23.27,0,0-.21.31,0,0v0c-.84.44-1,.93-.63,1.46a.09.09,0,0,1-.07.11l-.2.4v0c-.52.35-.9.75-.44,1.41a.13.13,0,0,1-.07.14l-.34.13.27.21,0,.18c-.17.18-.45.34-.5.55-.32,1.28-.61,2.56-.86,3.86a9.52,9.52,0,0,0-.33,2.58c.18,1.93.07,3.9.8,5.78.5,1.27.72,2.64,1.14,4,.11.35.5.62.76.93l.08.15a1.27,1.27,0,0,0-.17.4c-.1.74.48,1.19.8,1.75a27,27,0,0,0,6.42,7.87,13.29,13.29,0,0,0,3.29,2.38c.4.15.82.22,1.23.33h.05l0,0c-.45.76.21.87.65,1.11s.91.56,1.18-.2l.3.12c.11.21.17.53.34.61a7.24,7.24,0,0,0,1.24.3l.4.5.53-.47.66.19c.17.22.3.57.53.66.74.28,1.53.48,2.3.7V289a46.89,46.89,0,0,1-5.8-1.62c-8.41-3.5-14.06-9.66-16.25-18.51-2.68-10.85.33-20.16,8.62-27.7a23.34,23.34,0,0,1,6.91-4.33c1.65-.66,3.36-1.19,5.06-1.79a.12.12,0,0,0,0-.1c-.54-.9-1.13-1.78-1.63-2.71a.84.84,0,0,0-1.17-.49,31.64,31.64,0,0,0-22.6,27.08l-.34.19v6l.17.54h-.51c-.06-.62-.1-1.25-.19-1.86a3.43,3.43,0,0,0-.31-.78,32.23,32.23,0,0,1,3.53-15.78,30.92,30.92,0,0,1,5-7.13,32.61,32.61,0,0,1,14.37-9.09c.32-.1.64-.17,1-.28l-.37-.69c-.81-1.44-.12-2.71,1.53-2.73,2.23,0,4.47,0,6.7,0,2.59,0,5.18,0,7.77,0a4.82,4.82,0,0,1,1.62.36c.61.25.81,1.3.46,2-.15.32-.34.61-.57,1,1,.31,1.9.56,2.8.9a32.33,32.33,0,0,1,19.68,20.95,53.76,53.76,0,0,1,1.08,5.82c.09.52.1,1.06.14,1.6l-.29.23Z" transform="translate(-115.6 -227.23)"/><path class="cls-2" d="M179.68,263.11h.68v.53l-.26.17.25.18a37.85,37.85,0,0,1-.54,4.9c-2.72,11.47-9.6,19.39-20.59,23.63a30.72,30.72,0,0,1-16.8,1.47l-.19-.15a19,19,0,0,1-2.28-.37q-16.87-4.75-22.72-21.29c-.5-1.39-.74-2.87-1.1-4.31L116,267l0-.36.18-1.06h.69l0,.52.08.36a.77.77,0,0,1,.07.16,31.54,31.54,0,0,0,28.43,26.73v.31l-.32.38.22.08.1-.46H150l.18-.16h.36l.17.15.3.32.23-.47a5.41,5.41,0,0,1,1.14-.37,25.07,25.07,0,0,0,6-1.43,31.68,31.68,0,0,0,21-26.31l.33-.35Z" transform="translate(-115.6 -227.23)"/><path class="cls-3" d="M116.12,265.58l-.18,1.06-.32-3.7a3.43,3.43,0,0,1,.31.78C116,264.33,116.06,265,116.12,265.58Z" transform="translate(-115.6 -227.23)"/><path class="cls-3" d="M116,267l.14.87Z" transform="translate(-115.6 -227.23)"/><path class="cls-4" d="M180.36,260.46l-.3-.3.29-.23Z" transform="translate(-115.6 -227.23)"/><path class="cls-4" d="M180.35,264l-.25-.18.26-.17Z" transform="translate(-115.6 -227.23)"/><path class="cls-1" d="M142.23,293.84l.19.15Z" transform="translate(-115.6 -227.23)"/><path class="cls-5" d="M145.43,293.35A31.54,31.54,0,0,1,117,266.62a.77.77,0,0,0-.07-.16l-.08-.36,0-.52,0-6.71a31.64,31.64,0,0,1,22.6-27.08.84.84,0,0,1,1.17.49c.5.93,1.09,1.81,1.63,2.71a.12.12,0,0,1,0,.1c-1.7.6-3.41,1.13-5.06,1.79a23.34,23.34,0,0,0-6.91,4.33c-8.29,7.54-11.3,16.85-8.62,27.7,2.19,8.85,7.84,15,16.25,18.51a46.89,46.89,0,0,0,5.8,1.62l.88.09.53.1,6.18,0,.36-.09.7-.07c1.17-.26,2.35-.46,3.5-.79a26.58,26.58,0,0,0,16.33-13.17,21.55,21.55,0,0,0,3-9.51,43.17,43.17,0,0,0,.28-5.55,26.82,26.82,0,0,0-9.94-19.23,24.41,24.41,0,0,0-9.07-4.87l-1.58-.46a.08.08,0,0,0-.11-.05l-.79-.25c.61-1,1.22-1.94,1.74-2.91.3-.55.65-.7,1.19-.47a64.93,64.93,0,0,1,6.57,2.82,31,31,0,0,1,15,18.92,50.05,50.05,0,0,1,1,5.35l.14,2.46v1.42l-.17,2.29v.35a31.68,31.68,0,0,1-21,26.31,25.07,25.07,0,0,1-6,1.43,5.41,5.41,0,0,0-1.14.37h-.53a.17.17,0,0,0-.17,0h-.36Z" transform="translate(-115.6 -227.23)"/><path class="cls-6" d="M123.87,272.43l-.08-.15-.35-1a25.64,25.64,0,0,1-1-15.08l11.86,2.66c2,.44,4,.84,6,1.25a8.5,8.5,0,0,0,1.55,6.86c-.21.2-.42.41-.65.59L127.6,278.46Z" transform="translate(-115.6 -227.23)"/><path class="cls-7" d="M140.28,260.12c-2-.41-4-.81-6-1.25l-11.86-2.66c.12-.53.23-1,.34-1.58l0-.18.07-.34A.13.13,0,0,0,123,254c.14-.47.29-.94.44-1.41v0l.2-.4a.09.09,0,0,0,.07-.11l.63-1.46v0l0,0,.21-.31,0,0,.23-.27.1-.19a.19.19,0,0,0,0-.14h0c.24-.4.47-.81.71-1.22h0c.11-.18.23-.35.35-.53h0l.38-.56v-.06l.86-1.14h0L128,245h0l3.19-3.17h0l.88-.71h0l.71-.53h0l1.58-1.07h0c.29-.18.58-.36.88-.53h0l1.39-.6,8,16.45A8.55,8.55,0,0,0,140.28,260.12Z" transform="translate(-115.6 -227.23)"/><path class="cls-8" d="M127.6,278.46l13.58-10.89c.23-.18.44-.39.65-.59a8.25,8.25,0,0,0,6.25,3q0,9.15,0,18.3h-2.75l-.07-.05-4.45-.91-.66-.19-.58-.2-.31-.1-1.62-.64-.3-.12-1.83-.91,0,0h-.05l-.66-.43A25.21,25.21,0,0,1,127.6,278.46Z" transform="translate(-115.6 -227.23)"/><path class="cls-9" d="M144.58,254.81l-8-16.45,1.77-.87.16-.07,3.63-1.09a.85.85,0,0,1,1.13.47c1,1.78,2.12,3.53,3.19,5.28.9,1.47,2.27,1.48,3.17,0,1.09-1.78,2.18-3.56,3.24-5.35a.74.74,0,0,1,1-.42l5.46,1.94a1.8,1.8,0,0,1-.1.33q-3.28,6.82-6.55,13.65c-.4.84-.76,1.71-1.13,2.57A9.07,9.07,0,0,0,144.58,254.81Z" transform="translate(-115.6 -227.23)"/><path class="cls-10" d="M148.38,242.06c-.5.5-.63-.05-.79-.32-1.93-3.13-3.83-6.28-5.75-9.43-.57-.95-1.12-1.91-1.73-2.84-.32-.49-.33-.85.19-1.16h15.54c.72.34.47.78.17,1.27q-3.57,5.83-7.1,11.68c-.13.2-.23.41-.34.61h0l-.19.19Z" transform="translate(-115.6 -227.23)"/><path class="cls-11" d="M159.37,238.26l-5.46-1.94a.74.74,0,0,0-1,.42c-1.06,1.79-2.15,3.57-3.24,5.35-.9,1.47-2.27,1.46-3.17,0-1.07-1.75-2.15-3.5-3.19-5.28a.85.85,0,0,0-1.13-.47l-3.63,1.09c.21-.55.38-1,1.21-.91a5.13,5.13,0,0,0,2.18-.55c.85-.34,1.29,0,1.7.7.7,1.22,1.42,2.43,2.21,3.6a6.28,6.28,0,0,1,1.08,1.77c.06.22.34.41.55.55.59.38.82.23.9-.52h0l.19-.19h0c.52.28.79.1,1.08-.41,1-1.69,2-3.34,3-5,.27-.45.56-.77,1.2-.58.21.06.54-.29.82-.45a.08.08,0,0,1,.11.05c-.11.79.63.68,1,.9.08,0,.36-.28.55-.44a24.41,24.41,0,0,1,9.07,4.87A26.82,26.82,0,0,1,175.38,260a43.17,43.17,0,0,1-.28,5.55,21.55,21.55,0,0,1-3,9.51,26.58,26.58,0,0,1-16.33,13.17c-1.15.33-2.33.53-3.5.79l-1.06-.67a8.63,8.63,0,0,1,1-.37c1.09-.26,2.2-.44,3.28-.74a24.47,24.47,0,0,0,9.6-5.22,51.83,51.83,0,0,0,3.57-3.83,8.31,8.31,0,0,0,.65-.68,25.65,25.65,0,0,0,5-13.52,21.68,21.68,0,0,0-.64-7.85c0-.12,0-.24,0-.35A26,26,0,0,0,159.37,238.26Z" transform="translate(-115.6 -227.23)"/><path class="cls-11" d="M122.78,254.63c-.11.53-.22,1.05-.34,1.58a25.64,25.64,0,0,0,1,15.08l.35,1c-.26-.31-.65-.58-.76-.93-.42-1.31-.64-2.68-1.14-4-.73-1.88-.62-3.85-.8-5.78a9.52,9.52,0,0,1,.33-2.58c.25-1.3.54-2.58.86-3.86C122.33,255,122.61,254.81,122.78,254.63Z" transform="translate(-115.6 -227.23)"/><path class="cls-11" d="M127.6,278.46a25.21,25.21,0,0,0,7.18,6.27l.66.43c-.41-.11-.83-.18-1.23-.33a13.29,13.29,0,0,1-3.29-2.38,27,27,0,0,1-6.42-7.87c-.32-.56-.9-1-.8-1.75a1.27,1.27,0,0,1,.17-.4Z" transform="translate(-115.6 -227.23)"/><path class="cls-11" d="M140.83,287.35l4.45.91-.21,1-.53-.1c.06-.9-.51-.44-.88-.42-.77-.22-1.56-.42-2.3-.7C141.13,287.92,141,287.57,140.83,287.35Z" transform="translate(-115.6 -227.23)"/><path class="cls-12" d="M140.3,228.13a4.86,4.86,0,0,1,.83-.16H155a4.75,4.75,0,0,1,.82.16Z" transform="translate(-115.6 -227.23)"/><path d="M140.3,228.13h15.54a.54.54,0,0,1,0,.18H140.3Z" transform="translate(-115.6 -227.23)"/><path class="cls-11" d="M131.16,241.78,128,245a3.72,3.72,0,0,1,.29-.77,6.78,6.78,0,0,1,1.17-1.56A7.93,7.93,0,0,1,131.16,241.78Z" transform="translate(-115.6 -227.23)"/><path class="cls-11" d="M135.53,285.19l1.83.91c-.27.76-.74.43-1.18.2S135.08,286,135.53,285.19Z" transform="translate(-115.6 -227.23)"/><path class="cls-13" d="M116.79,258.87l0,6.71h-.18c-.06-.18-.12-.36-.17-.54,0-.76,0-1.51,0-2.27,0-.48,0-1,0-1.44,0-.76,0-1.51,0-2.27Z" transform="translate(-115.6 -227.23)"/><path class="cls-11" d="M138.39,237.49l-1.77.87-1.39.6c.42-.32.82-.68,1.27-1a8.84,8.84,0,0,1,1.38-.68C138,237.27,138.22,237.43,138.39,237.49Z" transform="translate(-115.6 -227.23)"/><path class="cls-11" d="M137.66,286.22l1.62.64,0,.26h0a7.24,7.24,0,0,1-1.24-.3C137.83,286.75,137.77,286.43,137.66,286.22Z" transform="translate(-115.6 -227.23)"/><path class="cls-11" d="M124.3,250.57l-.63,1.46C123.25,251.5,123.46,251,124.3,250.57Z" transform="translate(-115.6 -227.23)"/><path class="cls-11" d="M134.33,239.48l-1.58,1.07C132.9,239.64,133.62,239.57,134.33,239.48Z" transform="translate(-115.6 -227.23)"/><path class="cls-14" d="M179.52,261.34l-.14-2.46.3,1.76a1,1,0,0,0,0,.17Z" transform="translate(-115.6 -227.23)"/><path class="cls-14" d="M179.35,265.05l.17-2.29.16.35v1.94Z" transform="translate(-115.6 -227.23)"/><path class="cls-11" d="M123.41,252.56c-.15.47-.3.94-.44,1.41C122.51,253.31,122.89,252.91,123.41,252.56Z" transform="translate(-115.6 -227.23)"/><path class="cls-15" d="M143.66,288.71c.37,0,.94-.48.88.42l-.88-.09Z" transform="translate(-115.6 -227.23)"/><path class="cls-11" d="M139.59,287l.58.2-.53.47-.4-.5h0Z" transform="translate(-115.6 -227.23)"/><path class="cls-11" d="M127.1,246l-.86,1.14C126.24,246.56,126.39,246.07,127.1,246Z" transform="translate(-115.6 -227.23)"/><path class="cls-11" d="M128,245,127.1,246A.88.88,0,0,1,128,245Z" transform="translate(-115.6 -227.23)"/><path class="cls-11" d="M125.52,248.32c-.24.41-.47.82-.71,1.22A.92.92,0,0,1,125.52,248.32Z" transform="translate(-115.6 -227.23)"/><path class="cls-16" d="M116.45,262.77c0,.76,0,1.51,0,2.27C116.46,264.28,116.46,263.53,116.45,262.77Z" transform="translate(-115.6 -227.23)"/><path class="cls-16" d="M116.45,259.06c0,.76,0,1.51,0,2.27C116.45,260.57,116.45,259.82,116.45,259.06Z" transform="translate(-115.6 -227.23)"/><path class="cls-11" d="M132,241.07l-.88.71C131.17,241.19,131.5,241,132,241.07Z" transform="translate(-115.6 -227.23)"/><path class="cls-11" d="M135.22,239c-.3.17-.59.35-.88.53C134.33,238.8,134.79,238.91,135.22,239Z" transform="translate(-115.6 -227.23)"/><path class="cls-11" d="M132.75,240.54l-.71.53C132,240.54,132.33,240.47,132.75,240.54Z" transform="translate(-115.6 -227.23)"/><path class="cls-11" d="M125.87,247.78c-.12.18-.24.35-.35.53C125.63,248.13,125.75,248,125.87,247.78Z" transform="translate(-115.6 -227.23)"/><path class="cls-11" d="M126.24,247.22l-.38.56Z" transform="translate(-115.6 -227.23)"/><path class="cls-11" d="M122.9,254.11l-.07.34-.27-.21Z" transform="translate(-115.6 -227.23)"/><path class="cls-11" d="M123.6,252.14l-.2.4Z" transform="translate(-115.6 -227.23)"/><path class="cls-11" d="M124.47,250.19l-.21.31Z" transform="translate(-115.6 -227.23)"/><path class="cls-11" d="M124.67,249.88l-.23.27Z" transform="translate(-115.6 -227.23)"/><path class="cls-4" d="M179.69,260.81a1,1,0,0,1,0-.17.75.75,0,0,1,.07.12Z" transform="translate(-115.6 -227.23)"/><path class="cls-11" d="M124.82,249.55a.19.19,0,0,1,0,.14l-.08-.1Z" transform="translate(-115.6 -227.23)"/><path class="cls-14" d="M145.43,293.35l4.76.16-.18.16h-4.58Z" transform="translate(-115.6 -227.23)"/><path class="cls-17" d="M146.14,293.67h0Z" transform="translate(-115.6 -227.23)"/><path class="cls-1" d="M150.72,293.51h.53L151,294l-.3-.32Z" transform="translate(-115.6 -227.23)"/><path class="cls-1" d="M145.43,293.66l-.1.46-.22-.08.32-.38Z" transform="translate(-115.6 -227.23)"/><path class="cls-1" d="M179.35,265.05h.33l-.33.35Z" transform="translate(-115.6 -227.23)"/><path class="cls-13" d="M116.85,266.1l.08.36Z" transform="translate(-115.6 -227.23)"/><path class="cls-14" d="M150.72,293.51v.15l-.17-.15A.17.17,0,0,1,150.72,293.51Z" transform="translate(-115.6 -227.23)"/><path class="cls-15" d="M145.07,289.23l.21-1,.07.05.61.23h1l-.17.34-.53.06v.11h.51c.58-.17,1.3.4,1.77-.34H149l.53.34.69-.33.37-.18h.17l.19-.18.34,0,1.06.67-.7.07-.18-.34-.18.43Z" transform="translate(-115.6 -227.23)"/><path class="cls-1" d="M156.37,235.93c-.19.16-.47.49-.55.44-.4-.22-1.14-.11-1-.9Z" transform="translate(-115.6 -227.23)"/><path class="cls-11" d="M151.25,289.21l.18-.43.18.34Z" transform="translate(-115.6 -227.23)"/><path class="cls-18" d="M144.58,254.81a9.07,9.07,0,0,1,7,0,8,8,0,0,1-3.51,15.2,8.25,8.25,0,0,1-6.25-3,7.95,7.95,0,0,1,2.75-12.17Zm-2.86,9.89c.14.25.27.51.42.76A7.35,7.35,0,0,0,147.8,269a6,6,0,0,0,2.78-.65,6.75,6.75,0,0,0,4.35-6.87,6.92,6.92,0,0,0-9.67-5.77,7.59,7.59,0,0,0-3.8,4.21,1.74,1.74,0,0,0-.28,1.93v.36a1.86,1.86,0,0,0,.38,2.12v0Z" transform="translate(-115.6 -227.23)"/><path class="cls-19" d="M148.08,270a8.54,8.54,0,0,0,6.28-3q4.74,3.78,9.5,7.55c1.58,1.25,3.2,2.47,4.8,3.7a51.83,51.83,0,0,1-3.57,3.83,24.47,24.47,0,0,1-9.6,5.22c-1.08.3-2.19.48-3.28.74a8.63,8.63,0,0,0-1,.37l-.34,0-2.81-.05Q148.09,279.16,148.08,270Z" transform="translate(-115.6 -227.23)"/><path class="cls-20" d="M148.1,288.31l2.81.05-.19.18h-.17l-.37.18h-.69l-.53,0h-.36l-1.59-.17h-1l-.61-.23Z" transform="translate(-115.6 -227.23)"/><path class="cls-1" d="M139.59,287l-.34.16,0-.26Z" transform="translate(-115.6 -227.23)"/><path class="cls-21" d="M155.85,260.14a8.47,8.47,0,0,0-4.26-5.33c.37-.86.73-1.73,1.13-2.57q3.27-6.84,6.55-13.65a1.8,1.8,0,0,0,.1-.33,26,26,0,0,1,14.29,17.56c0,.11,0,.23,0,.35a7.11,7.11,0,0,0-.79.1c-3.45.8-6.9,1.61-10.36,2.39C160.32,259.17,158.08,259.65,155.85,260.14Z" transform="translate(-115.6 -227.23)"/><path class="cls-1" d="M148.57,241.87l-.19.19Z" transform="translate(-115.6 -227.23)"/><path class="cls-22" d="M155.85,260.14c2.23-.49,4.47-1,6.69-1.48,3.46-.78,6.91-1.59,10.36-2.39a7.11,7.11,0,0,1,.79-.1,21.68,21.68,0,0,1,.64,7.85,25.65,25.65,0,0,1-5,13.52,8.31,8.31,0,0,1-.65.68c-1.6-1.23-3.22-2.45-4.8-3.7q-4.77-3.76-9.5-7.55A8.49,8.49,0,0,0,155.85,260.14Z" transform="translate(-115.6 -227.23)"/><path class="cls-11" d="M147,288.55l1.59.17c-.47.74-1.19.17-1.77.34,0-.06,0-.11,0-.17Z" transform="translate(-115.6 -227.23)"/><path class="cls-12" d="M149.49,288.74h.69l-.69.33Z" transform="translate(-115.6 -227.23)"/><path class="cls-11" d="M149.49,288.74v.32l-.53-.34Z" transform="translate(-115.6 -227.23)"/><path class="cls-12" d="M146.84,288.89c0,.06,0,.11,0,.17h-.51V289Z" transform="translate(-115.6 -227.23)"/><path class="cls-11" d="M146,288.54h0Z" transform="translate(-115.6 -227.23)"/><path class="cls-11" d="M150.55,288.55h0Z" transform="translate(-115.6 -227.23)"/><path class="cls-10" d="M141.46,259.94a7.59,7.59,0,0,1,3.8-4.21,6.92,6.92,0,0,1,9.67,5.77,6.75,6.75,0,0,1-4.35,6.87,6,6,0,0,1-2.78.65,7.35,7.35,0,0,1-5.66-3.56c-.15-.25-.28-.51-.42-.76l-.16-.3v0l-.38-2.12v-.36Z" transform="translate(-115.6 -227.23)"/><path class="cls-23" d="M141.18,262.23l.38,2.12A1.86,1.86,0,0,1,141.18,262.23Z" transform="translate(-115.6 -227.23)"/><path class="cls-23" d="M141.46,259.94l-.28,1.93A1.74,1.74,0,0,1,141.46,259.94Z" transform="translate(-115.6 -227.23)"/><path class="cls-23" d="M141.56,264.4l.16.3Z" transform="translate(-115.6 -227.23)"/><path class="cls-24" d="M188.94,249.56a6,6,0,0,1,4-5.08,7.68,7.68,0,0,1,2.68-.53,6.36,6.36,0,0,1,3.94,1.29,6.68,6.68,0,0,1,2.37,3.49l3.24,11,3.25-11a6.62,6.62,0,0,1,2.41-3.46,6.39,6.39,0,0,1,4-1.32,7.67,7.67,0,0,1,2.67.53,6.17,6.17,0,0,1,4,5.09L225,270.43a3.59,3.59,0,0,1,.09.81v.85a4.45,4.45,0,0,1-1.62,3,5,5,0,0,1-3.34,1.23,6,6,0,0,1-1.66-.26,4.54,4.54,0,0,1-3.33-4l-1.54-12.59-4,13.2q-.88,2.94-2.76,3.55a6.05,6.05,0,0,1-1.76.31c-2,0-3.45-1.3-4.21-3.9l-4.07-13.2L195.26,272a4.8,4.8,0,0,1-1.08,2.46,5.11,5.11,0,0,1-2.26,1.58,6.07,6.07,0,0,1-1.71.26,5,5,0,0,1-3.29-1.19,4.56,4.56,0,0,1-1.62-3.06,3.71,3.71,0,0,1,0-.66v-.48a2.39,2.39,0,0,0,.09-.53Z" transform="translate(-115.6 -227.23)"/><path class="cls-24" d="M233.84,249.61a9.06,9.06,0,0,1,3-4.08,8,8,0,0,1,9.17,0,8.94,8.94,0,0,1,3,4.1l7.54,19.32a8.22,8.22,0,0,1,.57,2.68,4.54,4.54,0,0,1-.79,2.63,5,5,0,0,1-2.28,1.76,5.32,5.32,0,0,1-2.11.44,4.67,4.67,0,0,1-2.85-.94,5.53,5.53,0,0,1-1.88-2.66l-.48-1.44H236.16l-.53,1.44a5.48,5.48,0,0,1-1.9,2.63,4.65,4.65,0,0,1-2.87,1,5.12,5.12,0,0,1-2.06-.44,4.51,4.51,0,0,1-3.07-4.39,8.22,8.22,0,0,1,.57-2.68Zm7.63,4.64-2.37,8.42h4.73Z" transform="translate(-115.6 -227.23)"/><path class="cls-24" d="M257.78,249.07a4.71,4.71,0,0,1,1.49-3.54,5,5,0,0,1,3.64-1.45,4.78,4.78,0,0,1,3.55,1.49,5,5,0,0,1,1.44,3.6v6.27l8.9-9.72a6,6,0,0,1,1.49-1.15,3.4,3.4,0,0,1,1-.35,5.37,5.37,0,0,1,1.14-.14,5.13,5.13,0,0,1,2.77.8,4.8,4.8,0,0,1,1.88,2.25,5.38,5.38,0,0,1,.44,2.16,4.18,4.18,0,0,1-1.27,3.26l-6.93,6.62,7.94,8.83a4.85,4.85,0,0,1,1.27,3.34,4.65,4.65,0,0,1-1.93,3.91,5,5,0,0,1-1.93.93,4.28,4.28,0,0,0-.66.13,4,4,0,0,1-.66,0,4.52,4.52,0,0,1-3.72-1.67l-9.78-11.88v8.44a5,5,0,0,1-1.47,3.63,4.83,4.83,0,0,1-3.57,1.48,4.77,4.77,0,0,1-3.55-1.53,5,5,0,0,1-1.49-3.64Z" transform="translate(-115.6 -227.23)"/><path class="cls-24" d="M287.63,249.48a5,5,0,0,1,5.09-5.09h12.06a4.07,4.07,0,0,1,3,1.27,4.23,4.23,0,0,1,1.27,3.11,4.34,4.34,0,0,1-1.27,3.12,4.14,4.14,0,0,1-3.07,1.31h-6.93v2.68h5.7a4.77,4.77,0,0,1,3.38,1.36,3.79,3.79,0,0,1,1.31,2.93,4,4,0,0,1-1.36,3,4.93,4.93,0,0,1-3.28,1.27h-5.75v2.72h6.58a4.8,4.8,0,0,1,3.37,1.29,4.1,4.1,0,0,1,1.41,3.14,4,4,0,0,1-1.38,3,4.59,4.59,0,0,1-3.27,1.3H292.68a4.66,4.66,0,0,1-2.72-.88,5.45,5.45,0,0,1-1.93-2.37,4.87,4.87,0,0,1-.4-1.93Z" transform="translate(-115.6 -227.23)"/><path class="cls-24" d="M329.77,249.61a9.06,9.06,0,0,1,3-4.08,8,8,0,0,1,9.17,0,8.85,8.85,0,0,1,3,4.1l7.55,19.32a8.22,8.22,0,0,1,.57,2.68,4.54,4.54,0,0,1-.79,2.63,5,5,0,0,1-2.28,1.76,5.32,5.32,0,0,1-2.11.44,4.67,4.67,0,0,1-2.85-.94,5.53,5.53,0,0,1-1.88-2.66l-.48-1.44H332.09l-.53,1.44a5.48,5.48,0,0,1-1.9,2.63,4.67,4.67,0,0,1-2.87,1,5.2,5.2,0,0,1-2.07-.44,4.51,4.51,0,0,1-3.06-4.39,8.22,8.22,0,0,1,.57-2.68Zm7.63,4.64L335,262.67h4.73Z" transform="translate(-115.6 -227.23)"/><path class="cls-24" d="M366.42,249.91a5.71,5.71,0,0,1,1.38-4,4.71,4.71,0,0,1,3.66-1.51h9.43a12,12,0,0,1,8.72,3.25,10.73,10.73,0,0,1,3.38,8.08,10.36,10.36,0,0,1-2.87,7.47,12.31,12.31,0,0,1-7.7,3.56l-1.92.13h-3.95v4.3a4.85,4.85,0,0,1-1.49,3.65,4.94,4.94,0,0,1-3.55,1.43,4.79,4.79,0,0,1-3.6-1.55,5.13,5.13,0,0,1-1.49-3.66Zm15.87,7.5a2.34,2.34,0,0,0,.75-1.71,2.17,2.17,0,0,0-.75-1.62,2.41,2.41,0,0,0-1.71-.7h-4v4.73h4A2.32,2.32,0,0,0,382.29,257.41Z" transform="translate(-115.6 -227.23)"/><path class="cls-24" d="M394.39,249.12a4.88,4.88,0,0,1,1.49-3.55,4.94,4.94,0,0,1,3.6-1.49,4.86,4.86,0,0,1,3.55,1.49,4.94,4.94,0,0,1,1.49,3.6v22.14a4.78,4.78,0,0,1-1.51,3.57,5,5,0,0,1-3.58,1.47,4.84,4.84,0,0,1-3.57-1.49,5,5,0,0,1-1.47-3.64Z" transform="translate(-115.6 -227.23)"/><path class="cls-24" d="M410.39,250.21a16.24,16.24,0,0,1,10.7-5.86,24,24,0,0,1,3.47-.27A12.78,12.78,0,0,1,432,246a4.91,4.91,0,0,1,2.45,4.06,3.93,3.93,0,0,1-.88,2.57,4.25,4.25,0,0,1-1.42,1.23,4,4,0,0,1-1.82.39,10.25,10.25,0,0,1-1.69-.13,7.09,7.09,0,0,1-1.2-.26l-1.45-.55a4.48,4.48,0,0,0-1.08-.26,13.1,13.1,0,0,0-1.42-.07,6.74,6.74,0,0,0-4.34,1.47,7,7,0,0,0-2.41,4.19,7.84,7.84,0,0,0-.13,1.4,7.76,7.76,0,0,0,.13,1.4c.7,3.72,2.77,5.57,6.22,5.57a16,16,0,0,0,5.05-1l.44-.14a7.39,7.39,0,0,1,1.62-.17,4.26,4.26,0,0,1,3.33,1.36,4,4,0,0,1,1.09,2.72,4.89,4.89,0,0,1-.92,2.71,6.29,6.29,0,0,1-1.57,1.56,11.7,11.7,0,0,1-2.68,1.34,14.74,14.74,0,0,1-5.35.87,20.75,20.75,0,0,1-3.24-.26,16.44,16.44,0,0,1-7.94-3.5,18.85,18.85,0,0,1-2.5-2.54,16.09,16.09,0,0,1-3.59-9.94,14.48,14.48,0,0,1,1-5A17.05,17.05,0,0,1,410.39,250.21Z" transform="translate(-115.6 -227.23)"/><path class="cls-24" d="M436.44,249.07a4.74,4.74,0,0,1,1.49-3.54,5,5,0,0,1,3.64-1.45,4.76,4.76,0,0,1,3.55,1.49,5,5,0,0,1,1.45,3.6v6.27l8.9-9.72a5.8,5.8,0,0,1,1.49-1.15,3.3,3.3,0,0,1,1-.35,5.29,5.29,0,0,1,1.14-.14,5.13,5.13,0,0,1,2.76.8,4.74,4.74,0,0,1,1.88,2.25,5.38,5.38,0,0,1,.44,2.16,4.15,4.15,0,0,1-1.27,3.26L456,259.17l7.94,8.83a4.8,4.8,0,0,1,1.27,3.34,4.62,4.62,0,0,1-1.93,3.91,5,5,0,0,1-1.93.93,4.53,4.53,0,0,0-.66.13,4,4,0,0,1-.65,0,4.54,4.54,0,0,1-3.73-1.67l-9.78-11.88v8.44a5,5,0,0,1-1.47,3.63,5,5,0,0,1-7.12-.05,5,5,0,0,1-1.49-3.64Z" transform="translate(-115.6 -227.23)"/></svg>